<?xml version="1.0" standalone="no"?>
<!DOCTYPE svg PUBLIC "-//W3C//DTD SVG 20010904//EN"
 "http://www.w3.org/TR/2001/REC-SVG-20010904/DTD/svg10.dtd">
<svg version="1.0" xmlns="http://www.w3.org/2000/svg"
 width="600.000000pt" height="600.000000pt" viewBox="0 0 600.000000 600.000000"
 preserveAspectRatio="xMidYMid meet">
<metadata>
Created by potrace 1.14, written by Peter Selinger 2001-2017
</metadata>
<g transform="translate(0.000000,600.000000) scale(0.100000,-0.100000)"
fill="#000000" stroke="none">
<path d="M2757 5994 c-1 -1 -27 -5 -57 -8 -47 -4 -134 -19 -245 -41 -16 -3
-48 -11 -70 -17 -22 -5 -49 -12 -60 -14 -139 -25 -362 -102 -357 -123 1 -6 -4
-11 -10 -12 -30 -2 -63 -10 -87 -23 -14 -8 -48 -26 -76 -40 -27 -14 -59 -31
-70 -38 -47 -31 -150 -103 -155 -109 -3 -3 -12 -9 -20 -12 -10 -4 -8 -6 8 -7
12 -2 28 -3 35 -4 29 -5 191 80 252 131 6 5 26 15 45 23 19 7 40 16 45 20 9 7
49 19 83 26 17 3 15 -10 -5 -29 -22 -19 -196 -99 -223 -102 -3 -1 -30 -14 -61
-29 -53 -26 -89 -68 -70 -80 4 -3 43 12 87 33 91 44 359 148 404 157 32 7 43
27 13 23 -126 -12 95 94 243 117 46 7 41 7 82 5 40 -1 41 -18 2 -35 -17 -7
-28 -15 -24 -18 8 -8 128 2 191 16 40 9 215 22 324 25 34 1 35 3 31 31 -2 17
-8 33 -13 36 -14 9 -10 41 6 48 23 8 48 -58 51 -139 4 -93 -6 -137 -31 -142
-30 -6 -102 -4 -148 3 -23 3 -81 7 -128 8 -91 3 -141 -11 -163 -46 -22 -36 66
-67 156 -54 85 13 194 16 223 8 43 -12 43 -45 -1 -139 -20 -43 -37 -83 -38
-89 -1 -7 -13 -27 -27 -45 -49 -66 -128 -205 -134 -239 -5 -26 29 -37 124 -38
81 -1 152 -23 187 -57 17 -17 41 -68 39 -85 -1 -8 -3 -25 -3 -38 -2 -28 -49
-78 -87 -92 -39 -15 -102 -15 -153 1 -43 13 -95 55 -142 116 -28 37 -54 41
-90 16 -35 -24 -36 -26 -125 -138 -44 -55 -83 -101 -87 -103 -4 -2 -8 -12 -8
-22 0 -12 25 -34 68 -62 37 -23 72 -45 77 -47 29 -12 208 -134 244 -166 41
-37 52 -72 32 -103 -7 -11 -64 -31 -135 -47 -26 -6 -45 -24 -64 -59 -19 -37
-16 -78 9 -128 55 -109 222 -136 279 -45 7 12 16 52 20 90 13 115 49 134 155
79 44 -22 139 -92 195 -142 19 -17 50 -44 69 -58 19 -15 39 -31 45 -37 6 -5
32 -24 57 -42 l46 -32 24 31 c13 17 35 45 48 60 13 16 50 64 82 106 32 42 73
97 91 121 38 50 103 101 129 101 25 0 72 -51 88 -96 47 -135 135 -192 234
-150 33 13 96 77 98 99 1 7 3 23 4 37 2 14 -5 43 -16 66 -23 48 -65 72 -179
105 -41 11 -82 23 -91 26 -42 13 -59 98 -30 151 6 11 7 22 4 26 -3 3 -1 6 5 6
7 0 12 6 12 13 0 8 35 65 78 128 43 63 81 121 84 130 5 12 -13 28 -70 62 -112
66 -148 86 -232 127 -160 80 -197 90 -210 56 -4 -11 -5 -25 -3 -29 3 -5 7 -35
9 -68 2 -50 0 -62 -18 -79 -76 -71 -314 -6 -368 101 -26 50 -25 78 3 111 16
20 36 30 71 35 30 5 53 15 60 26 16 27 -42 73 -111 88 -29 7 -53 16 -53 21 0
11 3 10 64 -7 62 -18 146 -69 146 -88 0 -18 -25 -40 -75 -65 -73 -37 -78 -44
-71 -88 11 -66 70 -118 148 -131 124 -21 182 16 170 107 -3 19 -5 53 -6 75
l-1 40 44 -3 c51 -4 166 -55 317 -142 171 -99 192 -110 206 -110 11 0 30 33
42 70 1 3 12 24 24 47 27 52 51 121 56 161 3 26 -2 33 -33 50 -20 11 -56 23
-81 27 -146 21 -260 105 -260 193 0 101 193 79 305 -36 49 -50 108 -78 124
-59 36 44 37 190 2 304 -12 40 -6 38 102 -29 43 -26 83 -48 88 -48 5 0 9 -4 9
-10 0 -5 5 -10 10 -10 6 0 24 -10 40 -22 16 -12 32 -19 35 -16 6 5 -213 151
-295 195 -110 60 -180 94 -300 146 -57 25 -263 99 -289 104 -14 2 -28 6 -33 9
-4 3 -16 7 -25 9 -206 49 -231 54 -323 61 -41 3 -91 7 -110 10 -78 10 -375 13
-355 4 14 -7 7 -8 -25 -3 -46 6 -148 11 -153 7z m253 -684 c0 -5 -4 -10 -9
-10 -6 0 -13 5 -16 10 -3 6 1 10 9 10 9 0 16 -4 16 -10z m68 -6 c35 -10 26
-20 -13 -16 -19 2 -35 8 -35 13 0 10 16 11 48 3z m125 -35 c26 -7 47 -16 47
-20 0 -4 -13 -4 -30 1 -16 5 -30 7 -30 4 0 -3 -10 1 -22 8 -13 7 -28 11 -35
10 -6 -1 -15 3 -19 9 -7 12 -7 12 89 -12z"/>
<path d="M2272 5528 c-59 -8 -172 -49 -172 -64 0 -3 12 -15 26 -27 20 -15 23
-22 13 -27 -12 -6 -79 -20 -129 -26 -8 -1 -36 -4 -62 -8 -27 -3 -69 -9 -95
-12 -133 -16 -239 -41 -265 -63 -11 -9 -31 -26 -45 -37 l-25 -21 32 -12 c31
-10 113 -6 155 9 40 14 114 11 149 -5 31 -15 34 -19 24 -40 -24 -53 -162 -68
-279 -31 -59 18 -94 4 -137 -55 -34 -45 -31 -54 16 -64 9 -2 72 -22 138 -44
67 -22 138 -42 157 -45 l37 -4 -6 36 c-10 64 -9 67 27 82 54 23 206 8 256 -26
31 -20 47 -56 39 -87 -6 -27 -24 -37 -71 -43 -58 -7 -73 -14 -71 -30 5 -30 43
-60 143 -111 54 -27 134 -69 177 -93 75 -40 80 -42 92 -25 8 10 24 30 36 44
13 14 39 46 58 71 19 25 39 50 45 57 5 6 21 27 35 47 61 84 117 85 200 0 68
-68 105 -86 175 -86 60 0 119 30 131 65 17 53 -26 123 -90 147 -17 6 -66 11
-110 12 -84 1 -127 14 -145 45 -11 20 3 51 80 179 27 45 49 86 49 91 0 6 -33
16 -72 22 -40 6 -82 12 -93 15 -30 6 -138 15 -239 21 -53 3 -101 12 -120 22
l-31 16 49 23 c62 28 69 36 54 57 -19 26 -66 34 -136 25z"/>
<path d="M1129 4762 c-63 -63 -64 -70 -29 -165 32 -89 29 -189 -7 -214 -24
-18 -37 -16 -59 8 -17 18 -19 37 -19 150 0 71 -1 129 -2 129 -1 0 -18 -7 -37
-17 -49 -23 -61 -61 -81 -248 -4 -37 -6 -188 -3 -228 2 -32 23 -12 39 38 8 27
20 50 25 52 22 7 63 -39 80 -90 32 -96 16 -242 -30 -272 -22 -15 -27 -14 -61
7 l-38 22 7 -105 c7 -111 8 -124 26 -209 6 -30 13 -64 14 -75 11 -67 37 -149
45 -139 8 12 100 74 109 74 4 0 15 9 25 20 9 11 24 20 32 20 8 0 15 3 15 8 0
14 65 36 97 33 22 -2 45 -50 49 -103 9 -116 14 -140 34 -172 74 -120 222 -36
194 111 -10 55 -26 78 -82 122 -104 83 -113 140 -30 203 18 14 45 37 60 51 15
13 47 40 72 58 25 18 46 35 46 39 0 4 12 12 26 18 19 9 24 17 19 32 -6 18 -61
109 -82 135 -30 36 -116 182 -132 223 -26 67 -24 92 9 93 74 2 115 22 121 59
7 43 -40 128 -83 151 -63 34 -101 11 -111 -65 -3 -21 -9 -42 -14 -47 -22 -22
-111 114 -168 256 -5 11 -9 22 -10 25 -2 3 -6 15 -10 28 -10 29 -13 28 -56
-16z"/>
<path d="M4176 4721 c-20 -32 -36 -64 -36 -70 0 -6 -4 -11 -10 -11 -5 0 -10
-5 -10 -11 0 -6 -16 -34 -35 -63 -41 -63 -65 -117 -65 -149 0 -30 29 -43 140
-64 159 -29 231 -232 122 -346 -57 -60 -133 -72 -210 -33 -42 21 -102 86 -102
110 0 5 -12 35 -26 67 -19 43 -32 59 -46 59 -27 0 -59 -19 -81 -47 -10 -13
-24 -29 -31 -36 -6 -6 -34 -41 -61 -77 -27 -36 -52 -67 -55 -70 -3 -3 -17 -21
-32 -40 -15 -19 -37 -47 -50 -62 -63 -72 -61 -64 -25 -97 62 -57 88 -80 129
-113 23 -18 56 -47 74 -63 118 -114 170 -152 219 -161 28 -5 39 19 56 122 7
48 20 86 31 98 10 11 18 24 18 28 0 5 21 18 46 30 138 61 319 -88 301 -248
-10 -89 -65 -154 -144 -169 -21 -4 -53 -14 -70 -22 -29 -13 -32 -19 -28 -49 5
-43 13 -54 106 -151 102 -109 213 -233 217 -244 8 -20 32 -7 69 37 21 25 43
51 48 57 6 7 50 64 98 129 89 119 146 178 172 178 18 0 55 -35 56 -52 0 -7 2
-22 4 -33 2 -11 7 -40 10 -65 4 -25 13 -56 20 -70 13 -25 55 -69 55 -57 0 4
10 3 23 -2 47 -18 109 39 126 116 21 99 -6 156 -95 208 -82 48 -98 71 -90 128
9 61 46 133 138 274 l81 124 -39 56 c-50 72 -118 158 -197 246 -34 39 -68 79
-76 91 -8 12 -17 23 -20 26 -9 7 -31 74 -31 92 0 18 21 29 65 35 44 6 76 46
70 88 -12 94 -122 215 -210 231 -17 3 -30 -4 -45 -23 -22 -28 -23 -40 -6 -155
2 -15 2 -36 -1 -47 -4 -17 -9 -18 -41 -9 -40 11 -73 33 -167 112 -32 28 -64
54 -70 59 -5 4 -40 29 -76 56 -67 50 -162 111 -172 111 -3 0 -22 -26 -41 -59z"/>
<path d="M2364 4565 c-55 -76 -210 -231 -245 -246 -47 -19 -71 -1 -114 86 -32
66 -43 80 -79 96 -70 32 -154 19 -158 -25 -4 -61 -3 -73 5 -96 14 -41 44 -66
115 -95 82 -34 95 -46 98 -85 2 -25 -9 -41 -65 -98 -64 -64 -230 -221 -261
-245 -205 -162 -240 -195 -240 -226 1 -30 18 -52 81 -103 52 -42 74 -81 84
-149 16 -109 -49 -201 -138 -195 -83 6 -138 87 -143 214 -5 108 -9 122 -40
122 -27 0 -26 1 -166 -90 -54 -34 -98 -67 -98 -73 0 -17 31 -116 81 -257 62
-178 68 -196 75 -256 8 -71 -5 -80 -91 -63 -62 12 -67 12 -86 -7 -26 -26 -33
-121 -13 -178 18 -49 53 -103 74 -112 44 -18 80 -21 99 -7 20 13 21 12 21 -11
0 -22 -5 -26 -45 -32 -28 -4 -56 -2 -74 6 -104 43 -175 280 -111 370 25 35 61
41 115 20 62 -25 81 -21 77 15 -4 34 -31 139 -60 235 -11 36 -32 103 -47 150
-14 47 -27 90 -28 97 -6 26 -18 23 -109 -25 -51 -28 -107 -53 -125 -57 -48
-10 -50 3 -42 247 3 86 1 101 -17 125 -30 40 -48 39 -74 -4 -18 -28 -24 -56
-26 -107 -2 -38 1 -77 5 -85 9 -15 15 -50 28 -138 7 -55 -11 -99 -50 -118 -17
-8 -67 -18 -111 -21 -45 -3 -87 -7 -93 -9 -7 -3 -13 -1 -13 3 0 4 -18 7 -40 5
-33 -2 -40 1 -40 17 0 26 9 29 59 20 62 -11 76 -3 77 45 4 111 15 325 19 359
11 103 39 196 58 196 6 0 8 -3 4 -6 -3 -3 -1 -19 5 -35 l10 -30 25 22 c31 30
65 142 66 222 2 93 -16 112 -49 52 -38 -71 -39 -25 -3 100 21 72 116 311 150
377 16 32 17 37 3 42 -38 14 -57 -14 -138 -201 -24 -56 -55 -122 -70 -147 -28
-48 -52 -63 -37 -23 5 12 9 25 10 30 0 4 1 8 2 10 0 1 2 10 4 19 5 27 40 92
99 183 22 33 46 76 54 95 17 42 23 90 11 90 -16 0 -87 -120 -174 -295 -83
-166 -101 -208 -69 -169 14 18 15 18 8 -6 -9 -38 -63 -210 -79 -255 -8 -22
-16 -50 -18 -62 -5 -35 -17 -40 -17 -7 -1 86 -54 -119 -85 -331 -13 -89 -14
-490 0 -580 3 -22 7 -56 10 -75 2 -19 6 -46 10 -60 3 -14 8 -38 10 -55 2 -16
6 -41 9 -55 3 -14 8 -35 10 -48 30 -146 107 -390 172 -542 23 -55 118 -224
134 -240 3 -3 12 -18 20 -35 8 -16 18 -34 23 -40 24 -32 55 -84 51 -88 -2 -2
5 -12 16 -22 11 -10 20 -23 20 -29 0 -13 49 -87 74 -112 10 -9 41 -47 70 -83
80 -100 239 -257 370 -366 26 -22 54 -46 62 -53 37 -35 246 -178 299 -204 33
-17 67 -36 75 -43 39 -34 330 -167 392 -179 7 -2 20 -6 28 -9 8 -4 24 -8 35
-10 11 -2 36 -12 55 -22 19 -10 46 -20 60 -21 14 -2 45 -8 70 -14 25 -6 47
-10 50 -10 3 1 18 -4 35 -10 29 -11 41 -13 155 -25 30 -3 66 -7 80 -10 42 -6
101 -16 124 -21 19 -4 293 -17 361 -17 29 0 96 7 165 17 19 3 56 8 83 11 99
11 142 17 149 21 4 2 13 -5 21 -17 13 -17 24 -20 68 -18 67 3 145 29 324 109
220 97 225 100 372 174 38 19 26 26 -17 11 -48 -17 -46 -4 2 16 39 15 79 44
72 51 -9 10 -109 -14 -156 -38 -26 -13 -55 -35 -63 -48 -27 -40 -97 -53 -340
-60 -66 -2 -142 0 -170 4 l-50 7 46 2 c53 1 114 31 200 97 72 55 163 104 194
104 13 0 38 -12 55 -26 28 -24 37 -26 93 -21 72 6 118 27 137 61 25 48 10 57
-92 54 -88 -3 -93 -2 -96 18 -2 14 7 30 27 45 17 13 83 67 146 118 l116 95
-26 15 c-14 9 -25 19 -25 23 0 5 -4 8 -10 8 -5 0 -40 20 -78 45 -76 49 -160
85 -180 77 -8 -2 -27 -34 -43 -70 -16 -36 -39 -74 -51 -84 -33 -29 -124 -51
-177 -44 -80 11 -147 75 -137 133 2 15 5 31 5 36 1 4 16 22 34 40 24 22 58 39
113 56 114 34 116 36 101 69 -14 32 -17 35 -82 87 -28 22 -55 44 -61 50 -20
18 -109 94 -154 129 -42 33 -45 34 -60 18 -9 -9 -31 -28 -49 -42 -18 -14 -43
-35 -54 -47 -25 -24 -88 -76 -137 -113 -49 -36 -120 -111 -120 -127 0 -18 38
-40 80 -47 150 -23 212 -84 175 -171 -32 -78 -114 -124 -215 -120 -101 4 -150
38 -176 122 -24 76 -41 82 -122 43 -74 -36 -322 -197 -322 -209 0 -19 138
-105 289 -181 47 -24 96 -54 109 -67 22 -22 23 -27 10 -39 -15 -15 -32 -20
-110 -28 -53 -5 -108 -33 -108 -54 0 -8 16 -30 36 -48 41 -39 38 -42 -15 -15
-53 28 -77 66 -60 97 15 28 39 38 99 40 25 1 60 2 78 3 40 1 52 25 26 51 -10
9 -53 35 -94 56 -41 21 -107 59 -145 84 -39 25 -90 54 -114 63 l-43 18 -97
-55 c-247 -141 -318 -146 -386 -30 -36 62 -63 88 -127 120 -89 45 -198 35
-198 -19 0 -22 22 -61 51 -90 9 -9 71 -43 138 -77 66 -34 121 -68 121 -75 0
-15 -63 -37 -155 -55 -33 -7 -67 -15 -75 -17 -15 -6 -58 -7 -120 -3 l-35 2 28
11 c15 6 27 13 27 16 0 9 -107 81 -118 81 -6 0 -12 3 -14 8 -2 4 -46 39 -98
78 -108 82 -156 125 -189 171 -25 37 -21 39 40 17 94 -34 129 -27 129 26 0 60
-135 186 -222 208 -44 11 -68 -7 -68 -51 0 -71 -81 -6 -208 165 -70 94 -86
120 -144 224 -37 67 -55 82 -112 93 -61 11 -66 17 -13 19 111 2 179 12 241 33
38 13 71 29 73 36 10 27 -8 62 -64 120 -76 78 -94 112 -100 183 -7 70 7 110
45 132 59 34 145 -16 202 -118 20 -35 27 -59 36 -134 4 -25 12 -60 20 -77 17
-43 46 -43 144 0 60 26 209 107 229 123 9 8 -293 494 -310 499 -10 3 -27 1
-39 -5 -18 -10 -19 -9 -9 14 26 56 70 37 130 -57 21 -34 39 -68 39 -74 0 -7 3
-13 8 -13 4 0 15 -17 24 -37 52 -114 154 -278 183 -293 18 -10 38 0 143 72
240 164 255 169 310 123 30 -25 38 -45 47 -118 13 -98 88 -169 181 -169 79 0
138 45 154 117 15 67 -35 128 -158 190 -136 70 -145 125 -40 233 45 46 70 66
238 184 41 30 75 59 75 65 0 10 -78 109 -214 273 -9 10 -32 38 -51 61 -50 61
-60 70 -88 80 -35 13 -48 -2 -80 -96 -31 -91 -59 -118 -120 -117 -143 2 -258
196 -197 331 23 52 47 62 175 70 8 1 21 5 28 10 14 8 8 22 -72 168 -21 37
-147 217 -177 251 -6 7 -8 20 -5 29 5 11 22 -6 61 -61 30 -42 55 -79 55 -82 0
-3 33 -49 73 -102 89 -121 107 -152 107 -190 0 -41 -19 -53 -97 -59 -104 -7
-134 -37 -135 -133 -1 -54 20 -107 57 -144 33 -33 65 -46 114 -46 65 0 96 37
107 127 4 41 15 61 39 77 50 33 94 4 203 -132 19 -22 44 -52 55 -65 12 -13 58
-67 102 -120 44 -53 85 -96 91 -96 17 -1 66 42 305 271 41 39 70 97 59 118 -5
9 -31 25 -57 34 -169 61 -205 95 -209 198 -3 68 18 117 68 165 64 61 142 70
222 25 64 -35 83 -63 107 -153 18 -71 37 -99 62 -95 26 5 76 37 105 68 16 18
56 62 89 98 99 109 138 153 167 191 l27 37 -33 26 c-18 15 -49 40 -68 56 -234
195 -319 255 -350 245 -40 -13 -58 -59 -53 -138 2 -40 6 -77 8 -84 3 -10 -16
-22 -50 -29 -5 -1 -28 -6 -50 -11 -23 -6 -52 -6 -70 -1 -16 5 -41 11 -53 14
-27 5 -65 28 -106 64 -31 27 -69 94 -59 104 4 3 2 6 -4 6 -16 0 2 88 24 117
22 31 75 60 118 66 77 10 88 39 36 95 -20 22 -63 57 -96 78 -33 21 -62 41 -65
44 -15 17 -189 119 -211 125 -20 5 -29 1 -45 -20z m-1549 -3116 c11 -17 -1
-21 -15 -4 -8 9 -8 15 -2 15 6 0 14 -5 17 -11z m2335 -790 c-20 -39 -41 -46
-35 -11 2 9 4 20 4 24 1 4 8 14 17 22 27 27 35 7 14 -35z m145 29 c7 -7 -3 -8
-35 -3 -25 4 -53 8 -62 8 -10 1 -18 5 -18 9 0 12 103 -1 115 -14z m107 -29 c9
-5 26 -9 37 -9 11 0 22 -4 25 -9 5 -7 -47 1 -109 18 -3 0 -14 1 -25 1 -11 0
-20 4 -20 10 0 11 65 3 92 -11z m122 -27 c3 -5 -1 -9 -9 -9 -8 0 -12 4 -9 9 3
4 7 8 9 8 2 0 6 -4 9 -8z m-444 -40 c-40 -18 -178 -26 -200 -12 -8 5 -13 10
-10 10 3 1 47 2 98 4 50 1 95 6 99 9 3 4 16 7 27 6 16 0 13 -4 -14 -17z"/>
<path d="M5160 4546 c-27 -73 62 -230 173 -306 85 -58 82 -120 -18 -334 -24
-53 -41 -103 -39 -118 2 -23 23 -62 81 -154 31 -48 53 -94 44 -94 -5 0 -19 20
-31 45 -12 25 -26 45 -30 45 -5 0 -11 14 -15 30 -4 17 -11 30 -16 30 -5 0 -9
7 -9 15 0 8 -9 23 -19 32 -11 9 -17 22 -14 29 3 8 1 14 -4 14 -6 0 -18 -19
-29 -42 -10 -24 -22 -47 -26 -53 -60 -78 -142 -220 -157 -272 -12 -41 1 -59
69 -93 61 -31 77 -49 95 -110 11 -35 12 -107 2 -145 -3 -11 -6 -25 -6 -31 -2
-27 -67 -108 -97 -120 -81 -34 -139 21 -170 160 -17 71 -33 116 -44 116 -8 0
-77 -73 -127 -135 -65 -80 -74 -91 -115 -145 -24 -30 -45 -57 -48 -60 -10 -8
-40 -54 -40 -61 0 -5 95 -131 143 -189 7 -8 23 -31 37 -50 13 -19 34 -46 46
-59 62 -67 59 -152 -6 -183 -19 -9 -57 -27 -84 -40 -65 -31 -91 -79 -91 -165
0 -52 4 -64 24 -82 13 -12 27 -22 30 -22 24 -6 70 -4 88 2 31 11 20 -15 -13
-30 -34 -15 -60 -14 -97 4 -89 42 -110 180 -41 271 21 28 90 71 126 78 32 7
68 27 69 38 4 31 1 46 -15 79 -16 35 -145 209 -209 283 l-34 40 -39 -44 c-21
-24 -50 -55 -64 -70 -14 -15 -56 -63 -95 -106 -152 -171 -157 -176 -207 -181
-40 -5 -48 -2 -61 18 -9 13 -19 44 -22 69 -10 68 -33 123 -61 143 -35 26 -120
33 -164 13 -53 -24 -67 -38 -94 -95 -18 -41 -22 -60 -16 -82 10 -32 10 -35 10
-49 0 -24 63 -80 98 -86 49 -8 102 -23 130 -36 28 -14 29 -59 3 -102 -31 -50
-252 -260 -371 -353 -5 -4 136 -142 168 -165 42 -30 119 -95 149 -127 55 -59
38 -95 -56 -121 -66 -17 -127 -46 -149 -70 -28 -30 -23 -103 9 -131 27 -24 81
-39 117 -33 91 15 140 55 158 129 10 46 42 75 81 75 41 0 63 -11 181 -89 51
-34 96 -61 101 -61 5 0 11 -4 13 -8 2 -5 41 -28 88 -51 99 -50 109 -57 121
-88 5 -13 15 -23 23 -23 20 0 66 21 66 31 0 16 92 107 120 119 61 25 98 -7 70
-61 -11 -20 -79 -59 -105 -59 -15 0 -22 -19 -7 -21 4 0 16 -2 27 -4 32 -6 97
31 154 88 37 37 48 53 37 55 -9 2 -16 6 -16 8 0 16 34 66 60 88 32 26 50 27
50 0 0 -25 16 -15 47 29 17 23 39 51 50 62 67 75 243 321 243 341 0 3 8 18 19
32 42 60 215 415 213 439 0 4 3 13 7 18 5 6 12 24 16 40 9 34 10 35 18 55 3 8
8 29 11 45 6 28 5 29 -9 11 -8 -11 -18 -34 -21 -53 -9 -48 -26 -54 -20 -6 3
21 8 61 12 88 3 28 8 59 10 70 6 30 5 166 -1 198 -4 19 1 40 16 63 29 47 70
133 76 158 21 97 21 168 -2 266 -12 49 -14 177 -4 213 25 91 56 11 57 -148 2
-147 1 -145 12 -120 8 19 5 320 -5 395 -2 19 -6 50 -8 68 -4 31 -17 58 -17 34
0 -7 -5 -12 -10 -12 -21 0 -65 136 -84 255 -17 114 -17 123 0 133 15 9 15 13
-1 63 -40 122 -172 410 -195 424 -6 4 -10 -10 -11 -37 -1 -76 -19 -148 -37
-148 -20 0 -47 44 -105 170 -33 72 -77 129 -101 131 -53 6 -58 5 -66 -15z
m284 -1078 c15 -35 32 -72 37 -83 35 -78 9 -144 -63 -159 -22 -4 -30 -14 -42
-54 -8 -27 -13 -77 -11 -111 1 -33 -1 -61 -5 -61 -10 0 -19 87 -14 140 5 51
40 130 57 131 39 3 73 12 78 21 10 16 -26 136 -56 191 -15 26 -22 47 -17 47 5
0 21 -28 36 -62z m126 -342 c0 -2 3 -11 6 -20 4 -10 1 -16 -9 -16 -23 0 -27
-11 -37 -96 -9 -85 -29 -116 -75 -116 -33 0 -59 24 -80 75 -19 45 -6 49 15 4
21 -45 63 -58 92 -30 17 18 22 36 25 99 2 42 8 83 14 91 10 12 49 19 49 9z
m29 -96 c0 -9 -4 -8 -9 5 -5 11 -9 27 -9 35 0 9 4 8 9 -5 5 -11 9 -27 9 -35z
m-631 -802 c11 -13 51 -81 88 -153 37 -71 70 -129 74 -128 6 2 8 -12 12 -79 1
-16 6 -28 10 -28 4 0 8 -5 8 -11 0 -8 -5 -8 -15 1 -8 7 -15 20 -15 30 0 10 -7
23 -15 30 -9 7 -13 15 -11 18 14 13 -100 237 -141 278 -8 8 -28 14 -44 14 -32
0 -34 3 -19 31 14 25 42 24 68 -3z m412 -1 c0 -2 -10 -12 -22 -23 l-23 -19 19
23 c18 21 26 27 26 19z m27 -29 c-3 -8 -6 -5 -6 6 -1 11 2 17 5 13 3 -3 4 -12
1 -19z m-584 -168 c-5 -19 -23 -29 -23 -12 0 7 20 32 26 32 1 0 0 -9 -3 -20z
m-51 -261 c19 -23 38 -81 38 -117 0 -40 30 -39 67 3 18 21 33 34 33 28 0 -20
-80 -83 -104 -83 -22 0 -25 5 -31 60 -8 73 -49 126 -87 115 -38 -10 -72 -28
-96 -49 -21 -19 -23 -19 -16 -2 4 10 28 32 53 48 38 24 53 28 86 24 23 -4 47
-14 57 -27z m406 6 c7 -14 12 -34 12 -44 0 -10 9 -30 20 -43 18 -23 18 -38 0
-38 -10 0 -30 47 -36 88 -3 21 -11 43 -16 50 -6 7 -7 12 -1 12 5 0 15 -11 21
-25z m-194 -20 c-14 -19 -28 -35 -30 -35 -7 0 29 54 41 62 18 14 16 8 -11 -27z
m-441 -127 c-4 -43 -2 -58 15 -77 16 -21 27 -24 65 -23 39 3 48 -1 62 -22 13
-20 14 -29 5 -46 -17 -32 -52 -71 -75 -82 -14 -7 -12 -2 6 14 37 32 60 71 50
86 -4 7 -35 17 -69 23 -68 12 -95 34 -95 77 0 23 29 102 38 102 2 0 1 -24 -2
-52z m56 -271 c-2 -1 -15 -11 -29 -22 l-25 -20 19 23 c11 12 24 22 29 22 6 0
8 -1 6 -3z m-109 -102 c-7 -9 -15 -13 -18 -10 -3 2 1 11 8 20 7 9 15 13 18 10
3 -2 -1 -11 -8 -20z m-60 -56 c-7 -11 -14 -18 -17 -15 -3 3 0 12 7 21 18 21
23 19 10 -6z"/>
<path d="M3454 3723 c-27 -32 -53 -63 -59 -69 -5 -6 -35 -40 -65 -75 -30 -35
-83 -92 -118 -126 -111 -109 -172 -95 -207 47 -1 3 -4 19 -8 35 -16 65 -78
112 -156 119 -116 10 -192 -94 -154 -209 23 -67 72 -106 153 -120 121 -21 148
-90 71 -178 -52 -59 -203 -201 -271 -256 -59 -47 -70 -62 -60 -81 22 -41 324
-359 367 -387 50 -33 91 6 114 110 15 68 42 102 95 116 156 41 335 -97 309
-238 -16 -86 -74 -136 -169 -146 -64 -7 -101 -18 -110 -33 -16 -26 10 -77 68
-136 101 -102 293 -276 305 -276 4 0 30 21 58 48 28 26 82 76 119 111 151 139
177 167 190 198 8 18 11 38 8 47 -5 14 -88 46 -120 46 -9 0 -36 11 -59 25 -86
50 -102 166 -37 269 46 74 105 108 190 108 88 1 155 -62 168 -157 10 -78 28
-115 55 -110 47 9 114 70 235 215 39 47 87 103 107 125 20 22 37 44 37 48 0 8
-33 48 -145 176 -16 19 -65 70 -109 114 -146 149 -147 228 -6 258 30 6 67 20
83 31 120 85 50 309 -103 331 -29 5 -95 -16 -114 -35 -30 -30 -39 -57 -50
-143 -13 -97 -31 -125 -81 -125 -51 0 -97 35 -307 232 -126 117 -161 148 -169
148 -4 0 -28 -26 -55 -57z"/>
<path d="M2530 2785 c-8 -8 -44 -38 -80 -67 -36 -29 -70 -57 -76 -63 -7 -5
-29 -23 -49 -40 -21 -16 -43 -35 -49 -40 -6 -6 -28 -23 -48 -38 -45 -35 -62
-77 -42 -105 11 -16 76 -55 94 -57 23 -2 84 -42 104 -68 63 -85 58 -187 -13
-258 -37 -36 -62 -48 -117 -53 -111 -11 -210 75 -227 199 -3 22 -8 49 -11 60
-2 11 -5 26 -5 32 -2 24 -48 25 -98 4 -48 -22 -185 -110 -191 -123 -2 -5 -8
-8 -13 -8 -11 0 -72 -42 -77 -52 -2 -5 -10 -8 -17 -8 -38 0 -12 -62 72 -170 6
-8 47 -60 89 -115 101 -130 122 -151 165 -169 39 -16 57 -10 63 21 3 11 14 43
26 71 17 38 30 53 58 66 128 57 346 -86 344 -225 -1 -90 -51 -126 -177 -130
-121 -3 -125 -16 -35 -109 58 -59 236 -210 249 -210 5 0 11 -4 13 -8 5 -11 64
-52 77 -52 13 0 135 71 139 82 2 4 10 8 17 8 7 0 15 4 17 8 2 4 32 29 68 54
171 120 246 122 278 4 15 -59 60 -93 131 -102 132 -16 231 70 188 164 -9 20
-87 72 -87 58 0 -3 -15 0 -32 5 -18 6 -44 12 -57 15 -29 6 -78 31 -86 44 -8
13 17 59 54 97 17 18 77 69 134 113 56 45 126 101 155 126 l52 46 -114 112
c-63 61 -138 132 -168 159 -144 129 -142 212 7 232 78 10 108 23 134 54 25 31
30 42 35 100 9 99 -70 182 -175 183 -114 0 -145 -35 -184 -207 -12 -51 -78
-70 -128 -36 -30 19 -197 189 -251 254 -17 21 -46 55 -65 75 -18 20 -40 47
-48 60 -17 25 -22 26 -43 7z"/>
<path d="M1648 145 c-2 -2 -127 -6 -278 -10 -454 -11 -617 -20 -785 -41 -46
-5 -93 -22 -70 -24 6 -1 19 -3 30 -6 59 -11 164 -21 310 -29 55 -3 132 -8 170
-10 486 -27 3051 -27 3870 0 376 12 554 31 529 55 -5 4 -40 11 -79 14 -38 4
-88 9 -110 12 -22 2 -83 7 -135 9 -89 4 -172 7 -650 21 -205 6 -2796 14 -2802
9z"/>
</g>
</svg>
